<?xml version="1.0" encoding="UTF-8" standalone="no"?>
<svg
   xmlns:dc="http://purl.org/dc/elements/1.1/"
   xmlns:cc="http://creativecommons.org/ns#"
   xmlns:rdf="http://www.w3.org/1999/02/22-rdf-syntax-ns#"
   xmlns:svg="http://www.w3.org/2000/svg"
   xmlns="http://www.w3.org/2000/svg"
   width="128"
   height="128"
   viewBox="0 0 33.866667 33.866666"
   version="1.1"
   id="svg8">
  <defs
     id="defs2" />
  <metadata
     id="metadata5">
    <rdf:RDF>
      <cc:Work
         rdf:about="">
        <dc:format>image/svg+xml</dc:format>
        <dc:type
           rdf:resource="http://purl.org/dc/dcmitype/StillImage" />
        <dc:title></dc:title>
      </cc:Work>
    </rdf:RDF>
  </metadata>
  <g
     id="layer1"
     transform="translate(-40.763274,-7.5013422)">
    <g
       transform="matrix(1.0847458,0,0,1.0847458,-4.6244042,-1.8058462)"
       id="g1426">
      <ellipse
         style="fill:#ffffff;fill-opacity:1;stroke:#ffffff;stroke-width:0.529165;stroke-miterlimit:4;stroke-dasharray:none;stroke-opacity:1"
         id="circle843"
         cx="57.452282"
         cy="24.190477"
         rx="11.377011"
         ry="11.377084" />
      <path
         id="path839"
         style="fill:#ffffff;fill-opacity:1;stroke-width:0.554898"
         d="m 57.369597,8.580091 c -8.589033,0.04549 -15.527756,7.021208 -15.527635,15.610417 0,8.621395 6.988977,15.610417 15.610317,15.610416 8.621341,0 15.610317,-6.989021 15.610317,-15.610416 10e-7,-8.621395 -6.988976,-15.610417 -15.610317,-15.610417 -0.0288,-1.07e-4 -0.05803,0 -0.08268,0 z m 0.01085,4.233334 c 0.02394,-7.6e-5 0.04789,-7.6e-5 0.07183,0 6.28335,-1e-6 11.377013,5.093693 11.377014,11.377083 C 68.82929,30.473897 63.735629,35.56759 57.45228,35.567591 51.16893,35.56759 46.07527,30.473897 46.075269,24.190508 46.075145,17.935064 51.12517,12.85292 57.38045,12.813425 Z" />
      <ellipse
         cy="24.190508"
         cx="57.452282"
         id="circle841"
         style="fill:#3a3c3b;fill-opacity:1;stroke-width:0.353;stroke-miterlimit:4;stroke-dasharray:none"
         rx="9.9218121"
         ry="9.921875" />
      <path
         id="path845"
         style="fill:none;stroke:none;stroke-width:0.264582;stroke-linecap:butt;stroke-linejoin:miter;stroke-miterlimit:4;stroke-dasharray:none;stroke-opacity:1"
         d="m 43.840794,16.548597 a 15.610316,15.610415 0 0 0 -1.998832,7.641911 15.610316,15.610415 0 0 0 14.769547,15.587678 l 2.349196,-4.311364 a 11.377012,11.377084 0 0 1 -1.508426,0.100769 11.377012,11.377084 0 0 1 -11.37701,-11.377083 11.377012,11.377084 0 0 1 0.581356,-3.590478 z" />
      <path
         id="path853"
         style="fill:#dc4f3d;fill-opacity:1;stroke:none;stroke-width:0.264582;stroke-linecap:butt;stroke-linejoin:miter;stroke-miterlimit:4;stroke-dasharray:none;stroke-opacity:1"
         d="m 57.369597,8.580091 a 15.610316,15.610415 0 0 0 -13.528803,7.968506 l 2.816347,4.051433 a 11.377012,11.377084 0 0 1 10.795138,-7.786605 11.377012,11.377084 0 0 1 9.065022,4.50205 l 4.818797,-0.259932 a 15.610316,15.610415 0 0 0 -13.883819,-8.475452 15.610316,15.610415 0 0 0 -0.08268,0 z m -13.975801,8.825301 a 15.610316,15.610415 0 0 0 -0.07286,0.152446 l -5.16e-4,0.0021 a 15.610316,15.610415 0 0 1 0.07338,-0.154513 z" />
      <path
         id="circle862"
         style="fill:#fecd40;fill-opacity:1;stroke:none;stroke-width:0.264582;stroke-miterlimit:4;stroke-dasharray:none;stroke-opacity:1"
         d="m 71.336098,17.055543 -4.818797,0.259932 c 1.500104,1.978054 2.312047,4.392486 2.311989,6.875033 -1.64e-4,5.700258 -4.218688,10.520543 -9.868585,11.276314 l -2.349196,4.311364 c 0.280002,0.01513 0.56036,0.0227 0.84077,0.02273 8.621341,0 15.610317,-6.989022 15.610317,-15.610417 -1.61e-4,-2.481749 -0.592025,-4.927696 -1.726498,-7.134965 z M 56.611509,39.778186 c -0.04428,-0.0024 -0.08855,-0.005 -0.132807,-0.0078 0.04426,0.0028 0.08853,0.0053 0.132807,0.0078 z m -0.132807,-0.0078 c -0.04445,-0.0028 -0.0889,-0.0057 -0.133325,-0.0088 0.04443,0.0031 0.08887,0.0061 0.133325,0.0088 z" />
      <path
         id="rect908"
         style="fill:#ffffff;fill-opacity:1;stroke:#ffffff;stroke-width:0.264582;stroke-miterlimit:4;stroke-dasharray:none;stroke-opacity:1"
         d="M 62.859175,18.783646 C 61.519443,17.443904 59.229354,17.576954 57.7245,19.081818 l -1.426907,1.426917 c -0.457095,0.457098 -0.785873,0.986884 -0.986959,1.540193 -0.553351,0.201134 -1.083087,0.529867 -1.540182,0.986966 l -1.426908,1.426916 c -1.504854,1.504864 -1.637538,3.7946 -0.297804,5.134342 1.339732,1.339741 3.629453,1.207057 5.134308,-0.297808 l 1.426908,-1.426916 c 0.457095,-0.457097 0.785825,-0.986839 0.986957,-1.540192 0.553305,-0.20109 1.08309,-0.529869 1.540184,-0.986967 l 1.426907,-1.426916 c 1.504854,-1.504865 1.637903,-3.794966 0.298171,-5.134707 z m -0.707059,0.707063 c 0.987171,0.987176 0.94638,2.617798 -0.09172,3.655903 l -1.697673,1.697683 c -0.166807,0.1668 -0.349994,0.305038 -0.542263,0.420219 0.05976,-0.935464 -0.240377,-1.851828 -0.915338,-2.526793 -0.674788,-0.674792 -1.590841,-0.974907 -2.526048,-0.915346 0.115184,-0.192102 0.253157,-0.375203 0.419848,-0.541902 l 1.697672,-1.697684 c 1.038097,-1.038103 2.668342,-1.07926 3.655514,-0.09208 z m -3.95405,3.954076 c 0.583148,0.583151 0.805059,1.390522 0.677096,2.167962 -0.777565,0.128112 -1.585064,-0.09348 -2.168314,-0.676734 -0.583219,-0.583222 -0.804534,-1.390538 -0.676367,-2.167962 0.777292,-0.128022 1.58447,0.09362 2.167585,0.676735 z m 0.328133,3.114002 c -0.115169,0.192088 -0.253177,0.375218 -0.419847,0.5419 l -1.697672,1.697685 c -1.038097,1.038102 -2.668709,1.078895 -3.65588,0.09172 -0.987172,-0.987178 -0.946013,-2.617435 0.09208,-3.655538 l 1.697674,-1.697683 c 0.166572,-0.166571 0.349567,-0.304387 0.54153,-0.419488 -0.05947,0.935121 0.24092,1.850905 0.915706,2.525698 0.674962,0.674965 1.591044,0.975384 2.526411,0.91571 z" />
      <path
         id="path1370"
         style="fill:#0f9f5a;fill-opacity:1;stroke-width:0.554898"
         d="m 58.218953,8.5989808 a 15.610315,15.610415 0 0 1 0.07441,0.00413 c -0.0248,-0.00132 -0.04958,-0.00293 -0.07441,-0.00413 z m -1.610744,0.00413 c -0.02829,0.00151 -0.0565,0.00299 -0.08475,0.00465 a 15.610315,15.610415 0 0 1 0.08475,-0.00465 z m 2.37245,0.052193 a 15.610315,15.610415 0 0 1 0.14986,0.015503 c -0.04992,-0.00534 -0.0998,-0.010637 -0.14986,-0.015503 z m -3.129505,0.00723 c -0.0511,0.00521 -0.10201,0.010835 -0.152961,0.016536 a 15.610315,15.610415 0 0 1 0.152961,-0.016536 z m 3.856587,0.081649 c 0.08973,0.012993 0.178967,0.027345 0.268199,0.041858 a 15.610315,15.610415 0 0 0 -0.268199,-0.041858 z m 0.719848,0.1224731 c 0.126045,0.024336 0.251258,0.050683 0.376202,0.078031 a 15.610315,15.610415 0 0 0 -0.376202,-0.078031 z m -6.020782,0.013436 a 15.610315,15.610415 0 0 0 -0.378269,0.080615 c 0.125644,-0.028126 0.251498,-0.055537 0.378269,-0.080615 z m 6.712725,0.1374594 c 0.176798,0.04259 0.352185,0.088392 0.52658,0.1369425 a 15.610315,15.610415 0 0 0 -0.52658,-0.1369425 z m -7.389165,0.012919 a 15.610315,15.610415 0 0 0 -0.531231,0.1400431 c 0.175883,-0.049708 0.352878,-0.096402 0.531231,-0.1400431 z m 8.125033,0.18346 c 0.205095,0.060213 0.408283,0.1249568 0.609778,0.1932699 A 15.610315,15.610415 0 0 0 61.8554,9.2139303 Z m -8.866069,0.01757 a 15.610315,15.610415 0 0 0 -0.488856,0.1545126 c 0.161821,-0.054102 0.324718,-0.1056141 0.488856,-0.1545126 z m 9.532691,0.1948202 c 0.210949,0.07243 0.419557,0.1493712 0.626314,0.2304769 A 15.610315,15.610415 0 0 0 62.522022,9.4263205 Z M 52.338729,9.4413066 A 15.610315,15.610415 0 0 0 51.697946,9.679535 C 51.909363,9.595627 52.122884,9.5161293 52.338729,9.4413066 Z M 51.697946,9.679535 a 15.610315,15.610415 0 0 0 -0.629415,0.2656168 c 0.207443,-0.093103 0.417278,-0.1814234 0.629415,-0.2656168 z m 11.609552,0.040308 c 0.150599,0.061004 0.299814,0.1241274 0.448032,0.1896525 A 15.610315,15.610415 0 0 0 63.307498,9.719843 Z m 0.688326,0.298173 c 0.135048,0.06247 0.269113,0.126575 0.40204,0.192753 a 15.610315,15.610415 0 0 0 -0.40204,-0.192753 z m -13.109193,0.01034 a 15.610315,15.610415 0 0 0 -0.43563,0.209806 c 0.143895,-0.07235 0.289228,-0.141819 0.43563,-0.209806 z m 13.818706,0.339514 c 0.114505,0.06021 0.228259,0.121533 0.341062,0.184485 A 15.610315,15.610415 0 0 0 64.705337,10.36787 Z m -14.562842,0.02946 a 15.610315,15.610415 0 0 0 -0.359149,0.19637 c 0.118696,-0.06709 0.238545,-0.132321 0.359149,-0.19637 z m -0.673856,0.379305 a 15.610315,15.610415 0 0 0 -0.29197,0.177767 c 0.0965,-0.06046 0.194039,-0.119411 0.29197,-0.177767 z m 15.979284,0.0067 c 0.0729,0.04357 0.14543,0.08757 0.217556,0.132291 a 15.610315,15.610415 0 0 0 -0.217556,-0.132291 z m -16.657792,0.421162 a 15.610315,15.610415 0 0 0 -0.211872,0.143661 c 0.07018,-0.04859 0.140862,-0.0962 0.211872,-0.143661 z m 17.949694,0.43925 a 15.610315,15.610415 0 0 1 0.100769,0.07545 c -0.03351,-0.02527 -0.06704,-0.05044 -0.100769,-0.07545 z m -18.613215,0.02842 c -0.03926,0.02929 -0.07833,0.05871 -0.117305,0.08837 a 15.610315,15.610415 0 0 1 0.117305,-0.08837 z m 19.214725,0.4408 a 15.610315,15.610415 0 0 1 0.07545,0.06201 c -0.02506,-0.0208 -0.05026,-0.04136 -0.07545,-0.06201 z M 47.528201,12.1414 c -0.02323,0.01916 -0.04665,0.03807 -0.06976,0.05736 a 15.610315,15.610415 0 0 1 0.06976,-0.05736 z m 20.398107,0.474907 a 15.610315,15.610415 0 0 1 0.04754,0.04341 c -0.01585,-0.01448 -0.03163,-0.029 -0.04754,-0.04341 z m -20.985664,0.03359 c -0.01704,0.01553 -0.03368,0.03143 -0.05064,0.04703 a 15.610315,15.610415 0 0 1 0.05064,-0.04703 z m 10.30008,0.165365 a 11.377011,11.377084 0 0 0 -0.108003,0.0026 11.377011,11.377083 0 0 1 0.125573,-0.0026 11.377011,11.377084 0 0 0 -0.01757,0 z m -0.535881,0.02274 a 11.377011,11.377084 0 0 0 -0.09353,0.0067 11.377011,11.377083 0 0 1 0.09353,-0.0067 z m -0.292487,0.02325 a 11.377011,11.377084 0 0 0 -0.09095,0.0088 11.377011,11.377083 0 0 1 0.09095,-0.0088 z m -0.278534,0.02894 a 11.377011,11.377084 0 0 0 -0.08837,0.01085 11.377011,11.377083 0 0 1 0.08837,-0.01085 z m 2.829267,0.02429 a 11.377011,11.377083 0 0 1 0.122472,0.01705 11.377011,11.377084 0 0 0 -0.122472,-0.01705 z m 0.888828,0.15503 a 11.377011,11.377083 0 0 1 0.142627,0.03204 11.377011,11.377084 0 0 0 -0.142627,-0.03204 z m 0.142627,0.03204 a 11.377011,11.377083 0 0 1 0.141592,0.03359 11.377011,11.377084 0 0 0 -0.141592,-0.03359 z m -5.246675,0.03824 a 11.377011,11.377084 0 0 0 -0.383437,0.100769 c 0.126934,-0.03572 0.25474,-0.06938 0.383437,-0.100769 z m 5.422373,0.0036 c 0.09453,0.02317 0.18856,0.04734 0.282152,0.07286 a 11.377011,11.377084 0 0 0 -0.282152,-0.07286 z m -13.754628,0.0078 c -0.0218,0.0218 -0.04344,0.0437 -0.06511,0.06563 a 15.610315,15.610415 0 0 1 0.06511,-0.06563 z m 14.238317,0.122473 c 0.12355,0.03618 0.246157,0.07398 0.367933,0.114205 a 11.377011,11.377084 0 0 0 -0.367933,-0.114205 z m -6.451762,0.01395 a 11.377011,11.377084 0 0 0 -0.362766,0.115239 c 0.120132,-0.04019 0.240877,-0.07897 0.362766,-0.115239 z m -0.436663,0.140043 a 11.377011,11.377084 0 0 0 -0.489372,0.179834 c 0.161335,-0.06371 0.324516,-0.123388 0.489372,-0.179834 z m 7.410353,0.0124 c 0.120506,0.04174 0.239999,0.08563 0.358632,0.131258 a 11.377011,11.377084 0 0 0 -0.358632,-0.131258 z m 0.410309,0.150896 a 11.377011,11.377083 0 0 1 0.103352,0.04134 11.377011,11.377084 0 0 0 -0.103352,-0.04134 z m -8.378764,0.04444 a 11.377011,11.377084 0 0 0 -0.455783,0.195337 c 0.150272,-0.06829 0.302109,-0.133463 0.455783,-0.195337 z m 8.52294,0.01344 c 0.102712,0.04172 0.204728,0.08458 0.305922,0.129191 a 11.377011,11.377084 0 0 0 -0.305922,-0.129191 z m 7.25274,0.01964 a 15.610315,15.610415 0 0 1 0.05168,0.05788 c -0.01736,-0.01919 -0.03423,-0.03877 -0.05168,-0.05788 z m -23.074412,0.01447 c -0.02456,0.02697 -0.04901,0.05399 -0.07338,0.08113 a 15.610315,15.610415 0 0 1 0.07338,-0.08113 z m 16.136379,0.0987 a 11.377011,11.377083 0 0 1 0.127124,0.05736 11.377011,11.377084 0 0 0 -0.127124,-0.05736 z m 0.211872,0.09612 c 0.08603,0.04015 0.171471,0.08128 0.256314,0.123507 a 11.377011,11.377084 0 0 0 -0.256314,-0.123507 z m -9.614338,0.0031 a 11.377011,11.377084 0 0 0 -0.247012,0.118856 c 0.08181,-0.04056 0.164105,-0.08019 0.247012,-0.118856 z m 10.136784,0.256832 c 0.06276,0.03332 0.125018,0.06735 0.187067,0.101803 a 11.377011,11.377084 0 0 0 -0.187067,-0.101803 z m -10.669565,0.0088 a 11.377011,11.377084 0 0 0 -0.227891,0.124541 c 0.07541,-0.04242 0.151423,-0.08381 0.227891,-0.124541 z m 17.362137,0.08475 a 15.610315,15.610415 0 0 1 0.05684,0.06873 c -0.01887,-0.023 -0.03786,-0.04584 -0.05684,-0.06873 z m -24.061944,0.02636 c -0.02276,0.02757 -0.04512,0.05547 -0.0677,0.0832 a 15.610315,15.610415 0 0 1 0.0677,-0.0832 z m 24.501192,0.529167 a 15.610315,15.610415 0 0 1 0.0925,0.12299 c -0.03055,-0.04125 -0.06155,-0.08206 -0.0925,-0.12299 z M 44.9661,14.821857 c -0.02619,0.03485 -0.05213,0.06983 -0.07803,0.104903 a 15.610315,15.610415 0 0 1 0.07803,-0.104903 z m 5.806843,0.159163 a 11.377011,11.377084 0 0 0 -0.109036,0.0801 11.377011,11.377083 0 0 1 0.109036,-0.0801 z m -6.223869,0.424264 a 15.610315,15.610415 0 0 0 -0.132291,0.198437 c 0.04382,-0.06639 0.08749,-0.132762 0.132291,-0.198437 z m 20.264266,0.110587 a 11.377011,11.377083 0 0 1 0.110587,0.09508 11.377011,11.377084 0 0 0 -0.110587,-0.09508 z m 5.905545,0.449068 c 0.05704,0.09181 0.112767,0.184432 0.167948,0.277503 a 15.610315,15.610415 0 0 0 -0.167948,-0.277503 z m -26.562033,0.04703 a 15.610315,15.610415 0 0 0 -0.176215,0.293005 c 0.05771,-0.09839 0.116457,-0.196002 0.176215,-0.293005 z m 21.277118,0.07131 a 11.377011,11.377083 0 0 1 0.06046,0.05994 11.377011,11.377084 0 0 0 -0.06046,-0.05994 z m -21.592859,0.465605 c -0.166229,0.295469 -0.323008,0.596909 -0.470252,0.903821 a 15.610315,15.610415 0 0 0 -0.0093,0.02015 c -0.972794,2.035074 -1.519828,4.312114 -1.519794,6.717419 0,8.339158 6.539373,15.150103 14.769546,15.587163 l 2.348679,-4.31033 a 11.377011,11.377083 0 0 1 -0.294037,0.03565 c -0.03115,0.0033 -0.06231,0.0062 -0.09353,0.0093 a 11.377011,11.377083 0 0 1 -0.509526,0.03876 c -0.01739,7.94e-4 -0.03478,0.0019 -0.05219,0.0026 a 11.377011,11.377083 0 0 1 -0.558619,0.01394 11.377011,11.377083 0 0 1 -0.555518,-0.01394 c -0.02156,-0.0011 -0.04307,-0.0019 -0.06459,-0.0031 a 11.377011,11.377083 0 0 1 -0.499191,-0.03824 c -0.03177,-0.0031 -0.06339,-0.0065 -0.09508,-0.0098 a 11.377011,11.377083 0 0 1 -0.436146,-0.0553 c -0.06135,-0.0089 -0.122425,-0.01852 -0.18345,-0.02842 a 11.377011,11.377083 0 0 1 -0.340546,-0.06098 11.377011,11.377083 0 0 1 -0.0016,-5.29e-4 c -0.08443,-0.01635 -0.168427,-0.03398 -0.252179,-0.05219 a 11.377011,11.377083 0 0 1 -0.25218,-0.05788 c -0.109209,-0.02638 -0.217604,-0.0542 -0.325559,-0.08371 a 11.377011,11.377083 0 0 1 -0.192235,-0.05478 c -0.126736,-0.03707 -0.252375,-0.07598 -0.377236,-0.117306 a 11.377011,11.377083 0 0 1 -0.104385,-0.03514 c -0.01448,-0.005 -0.02895,-0.01 -0.04341,-0.01499 -0.13467,-0.04664 -0.26817,-0.09577 -0.40049,-0.147278 a 11.377011,11.377083 0 0 1 -0.07545,-0.02997 c -0.02341,-0.0093 -0.04695,-0.01845 -0.07028,-0.02791 -0.09025,-0.03658 -0.180149,-0.07384 -0.269232,-0.112654 a 11.377011,11.377083 0 0 1 -0.01602,-0.0072 11.377011,11.377083 0 0 1 -0.249595,-0.112655 11.377011,11.377083 0 0 1 -0.0067,-0.0031 c -0.07831,-0.03661 -0.156251,-0.07381 -0.233576,-0.112137 a 11.377011,11.377083 0 0 1 -0.272849,-0.140044 c -0.0031,-0.0016 -0.0062,-0.003 -0.0093,-0.0047 -0.06711,-0.03563 -0.133684,-0.07211 -0.199987,-0.109037 a 11.377011,11.377083 0 0 1 -0.29765,-0.170977 c -0.0036,-0.0021 -0.0073,-0.0041 -0.01085,-0.0062 -0.04187,-0.02507 -0.08353,-0.05037 -0.125056,-0.07596 a 11.377011,11.377083 0 0 1 -0.0083,-0.0052 11.377011,11.377083 0 0 1 -0.347264,-0.222725 c -0.0041,-0.0028 -0.0083,-0.0055 -0.0124,-0.0083 -0.02669,-0.0179 -0.05305,-0.03614 -0.07958,-0.05426 a 11.377011,11.377083 0 0 1 -0.359137,-0.255347 c -0.02465,-0.01827 -0.0494,-0.03631 -0.0739,-0.05478 a 11.377011,11.377083 0 0 1 -0.371034,-0.291455 c -0.01362,-0.01118 -0.02726,-0.02235 -0.04083,-0.03359 a 11.377011,11.377083 0 0 1 -0.380336,-0.329695 c -0.01068,-0.0097 -0.0214,-0.01923 -0.03204,-0.02894 a 11.377011,11.377083 0 0 1 -0.376718,-0.359151 l -0.0057,-0.0057 A 11.377011,11.377083 0 0 1 49.041225,31.85123 c -0.0038,-0.0041 -0.0076,-0.0083 -0.01137,-0.0124 a 11.377011,11.377083 0 0 1 -0.0083,-0.0093 11.377011,11.377083 0 0 1 -0.331244,-0.382406 c -0.0091,-0.01092 -0.01838,-0.0216 -0.02739,-0.03256 a 11.377011,11.377083 0 0 1 -0.296105,-0.376721 c -0.02075,-0.02749 -0.0415,-0.055 -0.06201,-0.08268 a 11.377011,11.377083 0 0 1 -0.245461,-0.345715 c -0.02846,-0.04156 -0.05683,-0.0831 -0.08475,-0.125057 a 11.377011,11.377083 0 0 1 -0.20102,-0.31471 c -0.03374,-0.05449 -0.0669,-0.109232 -0.09974,-0.164331 a 11.377011,11.377083 0 0 1 -0.170531,-0.296106 11.377011,11.377083 0 0 1 -0.0031,-0.0057 c -0.03864,-0.06961 -0.07647,-0.139827 -0.113688,-0.210323 a 11.377011,11.377083 0 0 1 -0.117304,-0.229443 c -0.04996,-0.100068 -0.09815,-0.201104 -0.14521,-0.302824 a 11.377011,11.377083 0 0 1 -0.08888,-0.196371 c -0.04486,-0.102018 -0.08778,-0.204948 -0.129707,-0.308508 a 11.377011,11.377083 0 0 1 -0.05995,-0.150895 c -0.0064,-0.01652 -0.01277,-0.03305 -0.01912,-0.04961 -0.04637,-0.121116 -0.0905,-0.24332 -0.132808,-0.366385 a 11.377011,11.377083 0 0 1 -0.04082,-0.120407 c -0.03755,-0.113357 -0.07344,-0.227191 -0.107486,-0.342097 a 11.377011,11.377083 0 0 1 -0.0098,-0.03359 11.377011,11.377083 0 0 1 -0.06098,-0.215491 c -0.0029,-0.01055 -0.006,-0.02096 -0.0088,-0.03152 -0.02291,-0.08537 -0.04467,-0.171196 -0.06563,-0.257348 a 11.377011,11.377083 0 0 1 -0.0677,-0.293522 c -0.0012,-0.0055 -0.0024,-0.01101 -0.0036,-0.01654 -0.01394,-0.06525 -0.02749,-0.130708 -0.04031,-0.19637 a 11.377011,11.377083 0 0 1 -0.0677,-0.377238 11.377011,11.377083 0 0 1 -0.0016,-0.0093 c -0.0072,-0.04489 -0.01404,-0.08981 -0.02067,-0.134875 a 11.377011,11.377083 0 0 1 -0.001,-0.0078 11.377011,11.377083 0 0 1 -0.05736,-0.449068 c -0.0033,-0.03115 -0.0062,-0.06231 -0.0093,-0.09353 a 11.377011,11.377083 0 0 1 -0.03927,-0.516248 c -6.08e-4,-0.01138 -0.0015,-0.02272 -0.0021,-0.03411 a 11.377011,11.377083 0 0 1 -0.01447,-0.569991 11.377011,11.377083 0 0 1 0.01499,-0.58291 11.377011,11.377083 0 0 1 0.04031,-0.531234 c 0.003,-0.03123 0.006,-0.06238 0.0093,-0.09353 a 11.377011,11.377083 0 0 1 0.05581,-0.439767 c 0.0086,-0.05945 0.01785,-0.11862 0.02739,-0.177767 a 11.377011,11.377083 0 0 1 0.06511,-0.363285 c 0.01382,-0.07089 0.02828,-0.141456 0.04341,-0.211874 a 11.377011,11.377083 0 0 1 0.06512,-0.282153 c 0.02582,-0.106759 0.05336,-0.212764 0.08217,-0.318326 a 11.377011,11.377083 0 0 1 0.04651,-0.166398 11.377011,11.377083 0 0 1 0.0062,-0.02119 c 0.0373,-0.127954 0.07671,-0.254807 0.118338,-0.380856 a 11.377011,11.377083 0 0 1 0.0072,-0.02119 z m -0.479554,0.923975 a 15.610315,15.610415 0 0 0 -0.04082,0.08475 l -5.16e-4,0.0026 a 15.610315,15.610415 0 0 1 0.04134,-0.08734 z M 71.095086,16.60521 c 0.05513,0.09894 0.109243,0.198441 0.162265,0.29869 a 15.610315,15.610415 0 0 0 -0.162265,-0.29869 z m -4.887525,0.320911 c 0.01399,0.01685 0.02796,0.03371 0.04186,0.05064 a 11.377011,11.377083 0 0 1 0.0062,0.0072 11.377011,11.377084 0 0 0 -0.04806,-0.05788 z m 0.04806,0.05788 a 11.377011,11.377083 0 0 1 0.1819,0.227893 11.377011,11.377084 0 0 0 -0.1819,-0.227893 z m 0.1819,0.227893 a 11.377011,11.377083 0 0 1 0.08888,0.116272 c -0.0032,-0.0042 -0.0061,-0.0087 -0.0093,-0.01292 a 11.377011,11.377084 0 0 0 -0.07958,-0.103353 z m 0.341579,0.464054 a 11.377011,11.377083 0 0 1 0.02325,0.03359 c -0.0078,-0.01119 -0.01545,-0.02242 -0.02325,-0.03359 z m 0.250629,0.374654 a 11.377011,11.377083 0 0 1 0.03204,0.05013 c -0.01062,-0.01675 -0.02133,-0.03343 -0.03204,-0.05013 z m 4.776421,0.0098 c 0.03505,0.08207 0.07077,0.163895 0.104388,0.246497 -0.03377,-0.08275 -0.06925,-0.164461 -0.104388,-0.246497 z m 0.153478,0.37052 c 0.04182,0.105313 0.08351,0.210653 0.122991,0.316776 -0.03964,-0.106259 -0.08113,-0.21162 -0.122991,-0.316776 z m -24.469666,0.26665 a 11.377011,11.377084 0 0 0 -0.108003,0.199988 c 0.03532,-0.0671 0.0714,-0.133684 0.108003,-0.199988 z m 24.605577,0.08475 c 0.37052,1.00308 0.637099,2.041198 0.795292,3.098002 -0.159894,-1.072271 -0.42886,-2.108518 -0.795292,-3.098002 z m 0.795292,3.098002 c 0.02278,0.152135 0.04322,0.304995 0.0615,0.457853 -0.01823,-0.153346 -0.03884,-0.305911 -0.0615,-0.457853 z M 67.484996,18.82728 c 0.0111,0.0209 0.02254,0.04159 0.03359,0.06253 -0.01102,-0.02093 -0.02243,-0.04166 -0.03359,-0.06253 z m -20.242563,0.345198 a 11.377011,11.377084 0 0 0 -0.120405,0.252181 c 0.03909,-0.08468 0.07933,-0.168634 0.120405,-0.252181 z m 20.452884,0.06873 c 0.01351,0.02804 0.02701,0.05607 0.04031,0.08423 -0.01331,-0.02813 -0.02677,-0.0562 -0.04031,-0.08423 z m 0.192235,0.418579 c 0.02155,0.04967 0.04223,0.09981 0.06305,0.149862 -0.02086,-0.05 -0.04146,-0.100149 -0.06305,-0.149862 z m -20.884379,0.03204 a 11.377011,11.377084 0 0 0 -0.12454,0.30024 c 0.04003,-0.100828 0.08178,-0.200825 0.12454,-0.30024 z m 21.075064,0.434082 c 0.02189,0.0572 0.04159,0.115446 0.06253,0.173116 -0.02101,-0.05771 -0.04058,-0.115747 -0.06253,-0.173116 z m -21.257481,0.0155 a 11.377011,11.377084 0 0 0 -0.11162,0.30489 c 0.03566,-0.102384 0.07316,-0.203861 0.11162,-0.30489 z M 68.22913,20.54502 c 0.0024,0.0071 0.0049,0.01411 0.0072,0.02119 -0.0024,-0.0071 -0.0048,-0.01411 -0.0072,-0.02119 z m 0.255281,0.868164 c 0.0042,0.01691 0.0088,0.0337 0.01291,0.05064 -0.0042,-0.01692 -0.0087,-0.03374 -0.01291,-0.05064 z m 0.106452,0.463021 c 0.003,0.01429 0.0059,0.02858 0.0088,0.04289 -0.0029,-0.0143 -0.0058,-0.0286 -0.0088,-0.04289 z m 0.08165,0.435116 a 11.377011,11.377083 0 0 1 0.0083,0.04909 11.377011,11.377083 0 0 1 0.0021,0.0124 c -0.0033,-0.02053 -0.0069,-0.04099 -0.01035,-0.0615 z m 4.280846,0.03876 c 0.0177,0.148926 0.03362,0.298001 0.04703,0.447518 -0.01334,-0.149865 -0.02948,-0.29891 -0.04703,-0.447518 z m 0.05013,0.487826 c 0.01206,0.138566 0.02265,0.27752 0.031,0.416512 -0.0083,-0.139285 -0.01908,-0.278244 -0.031,-0.416512 z m -4.185767,0.852662 a 11.377011,11.377083 0 0 1 0.0026,0.06511 c -7.94e-4,-0.02173 -0.0016,-0.0434 -0.0026,-0.06511 z m 0,0.997355 a 11.377011,11.377083 0 0 1 -0.0026,0.05943 c -2.65e-4,0.0052 -7.94e-4,0.01033 -0.0011,0.0155 0.0013,-0.02497 0.0026,-0.04992 0.0036,-0.07493 z m -0.09043,1.023193 a 11.377011,11.377083 0 0 1 -0.01654,0.115756 c 0.0056,-0.03855 0.01135,-0.07709 0.01654,-0.115756 z m -0.077,0.487826 a 11.377011,11.377083 0 0 1 -0.02894,0.156063 c 0.01003,-0.0519 0.01963,-0.103927 0.02894,-0.156063 z m -0.09353,0.464571 a 11.377011,11.377083 0 0 1 -0.04909,0.211357 c -0.02611,0.107933 -0.05351,0.215236 -0.08268,0.321944 0.04823,-0.176162 0.09193,-0.354001 0.131775,-0.533301 z m -0.131775,0.533301 a 11.377011,11.377083 0 0 1 -0.04548,0.160713 c -0.0019,0.0065 -0.0038,0.01309 -0.0057,0.01964 0.01749,-0.05997 0.03463,-0.119991 0.05116,-0.180351 z m -0.05478,0.192753 c -0.03575,0.122177 -0.07347,0.243355 -0.113172,0.363802 a 11.377011,11.377083 0 0 1 -0.03721,0.111104 c 0.05355,-0.156877 0.103584,-0.31515 0.150378,-0.474906 z M 68.171253,28.0009 c -0.03607,0.101141 -0.07288,0.201949 -0.11162,0.301791 a 11.377011,11.377083 0 0 1 -0.02532,0.06511 c 0.04791,-0.121225 0.09313,-0.243751 0.136942,-0.366903 z m -0.226858,0.586527 c -0.01976,0.04722 -0.039,0.09471 -0.05943,0.141594 a 11.377011,11.377083 0 0 1 -0.02325,0.05168 11.377011,11.377083 0 0 1 -0.0155,0.03462 c 0.03364,-0.07551 0.06615,-0.151557 0.09818,-0.227894 z m -0.226341,0.505913 c -0.02078,0.04362 -0.04115,0.08746 -0.06253,0.130741 0.02138,-0.04327 0.04169,-0.08717 0.06253,-0.130741 z m -0.241844,0.47749 c -0.02086,0.03868 -0.04176,0.07733 -0.06304,0.115755 0.02125,-0.03846 0.04223,-0.07703 0.06304,-0.115755 z m -0.261998,0.463021 c -0.01854,0.03083 -0.0374,0.06142 -0.05633,0.09198 0.01878,-0.03067 0.03783,-0.06113 0.05633,-0.09198 z m -0.271817,0.430981 a 11.377011,11.377083 0 0 1 -0.02636,0.03979 c 0.0088,-0.01323 0.01757,-0.02652 0.02636,-0.03979 z m -0.288869,0.415996 a 11.377011,11.377083 0 0 1 -0.02532,0.03411 c 0.0084,-0.01142 0.01699,-0.02265 0.02532,-0.03411 z m -1.688775,1.853633 a 11.377011,11.377083 0 0 1 -0.03101,0.02687 c 0.0103,-0.009 0.02074,-0.01784 0.03101,-0.02687 z m -0.373101,0.313676 a 11.377011,11.377083 0 0 1 -0.04444,0.03566 c 0.01485,-0.01186 0.02965,-0.02372 0.04444,-0.03566 z m -0.397906,0.306958 a 11.377011,11.377083 0 0 1 -0.05426,0.03927 c 0.01806,-0.01314 0.03628,-0.02603 0.05426,-0.03927 z m -0.401007,0.282153 c -0.0094,0.0063 -0.01901,0.01231 -0.02842,0.0186 a 11.377011,11.377083 0 0 1 -0.07028,0.04599 c 0.03287,-0.0216 0.06607,-0.04267 0.0987,-0.0646 z m -0.391705,0.250631 c -0.04102,0.0252 -0.08214,0.05022 -0.123506,0.07493 a 11.377011,11.377083 0 0 1 -0.03101,0.01809 c 0.05177,-0.03067 0.103286,-0.06156 0.154511,-0.09302 z m -0.443898,0.259416 c -0.06133,0.03395 -0.123462,0.06647 -0.185517,0.09922 0.06202,-0.03282 0.124214,-0.0653 0.185517,-0.09922 z m -0.43873,0.229443 c -0.07214,0.03595 -0.145093,0.07042 -0.218073,0.104903 0.07306,-0.03441 0.145915,-0.069 0.218073,-0.104903 z m -0.467152,0.219625 a 11.377011,11.377083 0 0 1 -0.02635,0.01188 c -0.08668,0.0381 -0.174664,0.07368 -0.262514,0.109554 0.09681,-0.03961 0.193472,-0.0793 0.288869,-0.12144 z m -0.47852,0.198438 a 11.377011,11.377083 0 0 1 -0.05529,0.0217 c -0.09675,0.03704 -0.194969,0.07104 -0.293003,0.10542 0.116823,-0.04099 0.233342,-0.08251 0.348297,-0.127123 z m -0.489373,0.17725 c -0.08465,0.02853 -0.170352,0.0545 -0.255797,0.08113 0.08554,-0.02651 0.171183,-0.05269 0.255797,-0.08113 z m -0.518311,0.161231 a 11.377011,11.377083 0 0 1 -0.08992,0.02532 c 0.03007,-0.0083 0.05995,-0.01683 0.08992,-0.02532 z m -0.520895,0.134874 a 11.377011,11.377083 0 0 1 -0.07803,0.01757 c 0.02604,-0.0059 0.05207,-0.01151 0.07803,-0.01757 z m -3.427159,4.509802 c 0.276667,0.01458 0.554783,0.02273 0.835085,0.02273 -0.278515,-2.9e-5 -0.55697,-0.0078 -0.835085,-0.02273 z" />
    </g>
  </g>
</svg>
