<?xml version="1.0" encoding="UTF-8" standalone="no"?>
<svg
   xmlns:dc="http://purl.org/dc/elements/1.1/"
   xmlns:cc="http://creativecommons.org/ns#"
   xmlns:rdf="http://www.w3.org/1999/02/22-rdf-syntax-ns#"
   xmlns:svg="http://www.w3.org/2000/svg"
   xmlns="http://www.w3.org/2000/svg"
   xmlns:xlink="http://www.w3.org/1999/xlink"
   id="svg8"
   version="1.1"
   viewBox="0 0 116.41667 74.083331"
   height="280"
   width="440">
  <defs
     id="defs2">
    <linearGradient
       id="linearGradient3053">
      <stop
         id="stop3049"
         offset="0"
         style="stop-color:#20d1fd;stop-opacity:1" />
      <stop
         id="stop3051"
         offset="1"
         style="stop-color:#00e676;stop-opacity:1" />
    </linearGradient>
    <filter
       height="1.6920856"
       y="-0.3460428"
       width="1.6920856"
       x="-0.3460428"
       id="filter985"
       style="color-interpolation-filters:sRGB">
      <feGaussianBlur
         id="feGaussianBlur987"
         stdDeviation="7.2482748" />
    </filter>
    <linearGradient
       gradientUnits="userSpaceOnUse"
       y2="96.903641"
       x2="70.776031"
       y1="9.921876"
       x1="43.656254"
       id="linearGradient3055"
       xlink:href="#linearGradient3053" />
  </defs>
  <metadata
     id="metadata5">
    <rdf:RDF>
      <cc:Work
         rdf:about="">
        <dc:format>image/svg+xml</dc:format>
        <dc:type
           rdf:resource="http://purl.org/dc/dcmitype/StillImage" />
        <dc:title></dc:title>
      </cc:Work>
    </rdf:RDF>
  </metadata>
  <rect
     y="-1.324596e-06"
     x="5.0029298e-06"
     height="74.083336"
     width="116.41666"
     id="rect3047"
     style="opacity:1;fill:url(#linearGradient3055);fill-opacity:1;stroke-width:2.38125;stroke-linecap:square;stroke-linejoin:round;paint-order:stroke fill markers" />
  <rect
     style="opacity:1;fill:#000000;fill-opacity:0.584677;stroke-width:2.38125;stroke-linecap:square;stroke-linejoin:round;paint-order:stroke fill markers;filter:url(#filter985)"
     id="rect863"
     width="50.270832"
     height="50.270832"
     x="33.072918"
     y="14.750027"
     rx="7.9375"
     ry="7.9375" />
  <rect
     ry="7.9375"
     rx="7.9375"
     y="11.906251"
     x="33.072918"
     height="50.270832"
     width="50.270832"
     id="rect861"
     style="opacity:1;fill:#ffffff;stroke-width:2.38125;stroke-linecap:square;stroke-linejoin:round;paint-order:stroke fill markers" />
  <g
     id="g1120"
     transform="translate(41.274995,20.185394)">
    <ellipse
       style="fill:#ffffff;fill-opacity:1;stroke:#ffffff;stroke-width:0.57401;stroke-miterlimit:4;stroke-dasharray:none;stroke-opacity:1"
       id="circle843-8"
       cx="16.933443"
       cy="16.933331"
       rx="12.341166"
       ry="12.341244" />
    <path
       id="path839-0"
       style="fill:#ffffff;fill-opacity:1;stroke-width:0.601923"
       d="M 16.843751,2.9275868e-5 C 7.5268339,0.04937436 8.3289018e-5,7.6162552 2.1454326e-4,16.933364 c 0,9.352022 7.58126345674,16.933334 16.93322545674,16.933333 9.351964,0 16.933226,-7.581311 16.933226,-16.933333 C 33.866667,7.5813415 26.285404,2.9275868e-5 16.93344,2.9275868e-5 c -0.03124,-1.16067801e-4 -0.06295,0 -0.08969,0 z M 16.855521,4.5921206 c 0.02597,-8.25e-5 0.05195,-8.25e-5 0.07792,0 6.815838,-1.1e-6 12.341167,5.5253624 12.341168,12.3412434 -1e-6,6.815879 -5.525328,12.341241 -12.341165,12.341243 C 10.117604,29.274605 4.5922776,23.749243 4.5922765,16.933364 4.592142,10.147797 10.070135,4.6349626 16.855524,4.5921206 Z" />
    <ellipse
       cy="16.933363"
       cx="16.933443"
       id="circle841-2"
       style="fill:#3a3c3b;fill-opacity:1;stroke-width:0.382915;stroke-miterlimit:4;stroke-dasharray:none"
       rx="10.762644"
       ry="10.762712" />
    <path
       id="path845-48"
       style="fill:none;stroke:none;stroke-width:0.287004;stroke-linecap:butt;stroke-linejoin:miter;stroke-miterlimit:4;stroke-dasharray:none;stroke-opacity:1"
       d="M 2.1684392,8.6438327 A 16.933225,16.933332 0 0 0 2.1454326e-4,16.933364 16.933225,16.933332 0 0 0 16.021419,33.842032 l 2.54828,-4.676734 A 12.341166,12.341244 0 0 1 16.93344,29.274607 12.341166,12.341244 0 0 1 4.5922765,16.933364 12.341166,12.341244 0 0 1 5.2229,13.038608 Z" />
    <path
       id="path853-3"
       style="fill:#f44336;fill-opacity:1;stroke:none;stroke-width:0.287004;stroke-linecap:butt;stroke-linejoin:miter;stroke-miterlimit:4;stroke-dasharray:none;stroke-opacity:1"
       d="M 16.843751,2.9275868e-5 A 16.933225,16.933332 0 0 0 2.1684392,8.6438327 L 5.2234597,13.038608 A 12.341166,12.341244 0 0 1 16.93344,4.5921206 12.341166,12.341244 0 0 1 26.766685,9.4757004 l 5.22717,-0.2819602 A 16.933225,16.933332 0 0 0 16.93344,2.9275868e-5 a 16.933225,16.933332 0 0 0 -0.08969,0 z M 1.68356,9.5732375 A 16.933225,16.933332 0 0 0 1.604525,9.7386026 l -5.598e-4,0.00228 a 16.933225,16.933332 0 0 1 0.079599,-0.1676073 z" />
    <path
       id="circle862-9"
       style="fill:#fdd835;fill-opacity:1;stroke:none;stroke-width:0.287004;stroke-miterlimit:4;stroke-dasharray:none;stroke-opacity:1"
       d="m 31.993855,9.1937402 -5.22717,0.2819602 c 1.627231,2.1456856 2.507983,4.7647306 2.50792,7.4576636 -1.78e-4,6.18333 -4.576204,11.412114 -10.704906,12.231934 l -2.54828,4.676734 c 0.303731,0.01641 0.607848,0.02462 0.912021,0.02466 9.351964,0 16.933226,-7.581312 16.933226,-16.933334 C 33.866492,14.241291 33.22447,11.58806 31.993855,9.1937345 Z M 16.021419,33.842032 c -0.04803,-0.0026 -0.09606,-0.0054 -0.144062,-0.0085 0.04801,0.003 0.09603,0.0057 0.144062,0.0085 z m -0.144062,-0.0085 c -0.04822,-0.003 -0.09643,-0.0062 -0.144624,-0.0095 0.04819,0.0034 0.0964,0.0066 0.144624,0.0095 z" />
    <path
       id="path1370-0"
       style="fill:#4caf50;fill-opacity:1;stroke-width:2.27498"
       d="m 8.1972656,32.669922 c -0.68151,1.211372 -1.3240591,2.448745 -1.9277344,3.707031 l -0.039062,0.08203 C 2.242182,44.802436 -1.3939411e-4,54.138665 0,64 c 0,34.1891 26.810451,62.11243 60.552734,63.9043 l 9.628907,-17.67188 c -0.401182,0.0539 -0.802627,0.10302 -1.205079,0.14649 -0.12771,0.0136 -0.254815,0.0243 -0.382812,0.0371 -0.695044,0.0686 -1.392419,0.12281 -2.089844,0.16015 -0.07128,0.003 -0.143486,0.007 -0.214844,0.01 -0.762829,0.0378 -1.525295,0.0563 -2.289062,0.0566 -0.759526,-5e-4 -1.518747,-0.0191 -2.277344,-0.0566 -0.0884,-0.005 -0.177411,-0.009 -0.265625,-0.0137 -0.683267,-0.0374 -1.365906,-0.089 -2.046875,-0.15625 -0.130242,-0.0129 -0.258743,-0.0257 -0.388672,-0.0391 -0.597445,-0.0641 -1.194535,-0.13948 -1.789062,-0.22656 -0.251528,-0.0367 -0.50176,-0.0766 -0.751953,-0.11719 -0.466632,-0.0763 -0.932385,-0.15959 -1.396485,-0.25 l -0.0059,-0.002 c -0.346167,-0.067 -0.689833,-0.1402 -1.033203,-0.21484 -0.345525,-0.0752 -0.691435,-0.1533 -1.035156,-0.23633 -0.447738,-0.10817 -0.891387,-0.22277 -1.333985,-0.34375 -0.263357,-0.0726 -0.527016,-0.14743 -0.789062,-0.22461 -0.519595,-0.15198 -1.034968,-0.31104 -1.546875,-0.48047 -0.142866,-0.0473 -0.285318,-0.0958 -0.427735,-0.14453 -0.05938,-0.0204 -0.118433,-0.0401 -0.177734,-0.0605 -0.552125,-0.1912 -1.098138,-0.39429 -1.640625,-0.60547 -0.103257,-0.0406 -0.207593,-0.0817 -0.310547,-0.12304 -0.09596,-0.0381 -0.191449,-0.0745 -0.287109,-0.11328 -0.370016,-0.14998 -0.738293,-0.30377 -1.103516,-0.4629 l -0.06641,-0.0293 c -0.342954,-0.14986 -0.684206,-0.30287 -1.023438,-0.46094 l -0.02734,-0.0137 c -0.321071,-0.15009 -0.640012,-0.30187 -0.957032,-0.45899 -0.37542,-0.18636 -0.74886,-0.37782 -1.11914,-0.57421 -0.01285,-0.006 -0.02625,-0.0127 -0.03906,-0.0195 -0.275149,-0.14607 -0.548481,-0.29587 -0.820312,-0.44726 -0.410272,-0.22753 -0.815528,-0.46139 -1.21875,-0.70117 -0.01474,-0.009 -0.0303,-0.0167 -0.04492,-0.0254 -0.171666,-0.10277 -0.343427,-0.20563 -0.513672,-0.31055 l -0.0332,-0.0215 c -0.480053,-0.29574 -0.954812,-0.6011 -1.423828,-0.91406 -0.01663,-0.0113 -0.03396,-0.0219 -0.05078,-0.0332 -0.109418,-0.0734 -0.21742,-0.14835 -0.326172,-0.22266 -0.497525,-0.3394 -0.988648,-0.68847 -1.472657,-1.04687 -0.10106,-0.0749 -0.202285,-0.14891 -0.302734,-0.22461 -0.515263,-0.38775 -1.022741,-0.78653 -1.521484,-1.19531 -0.05584,-0.0459 -0.112334,-0.09061 -0.167969,-0.136723 -0.529675,-0.439007 -1.048855,-0.889557 -1.558594,-1.351563 -0.04379,-0.03976 -0.08724,-0.07934 -0.130859,-0.11914 -0.525988,-0.47898 -1.041392,-0.970119 -1.544922,-1.472656 l -0.02344,-0.02344 c -0.508445,-0.508906 -1.00587,-1.028669 -1.490234,-1.560547 -0.01557,-0.01663 -0.02945,-0.03396 -0.04492,-0.05078 l -0.03516,-0.03906 c -0.464246,-0.51247 -0.916418,-1.033802 -1.357422,-1.566406 -0.0373,-0.04475 -0.07634,-0.08983 -0.113281,-0.134765 -0.415463,-0.506249 -0.819113,-1.021628 -1.212891,-1.544922 -0.08507,-0.112706 -0.169819,-0.224392 -0.253906,-0.337891 -0.344224,-0.466159 -0.681196,-0.939307 -1.007813,-1.417969 -0.11668,-0.170388 -0.233189,-0.339705 -0.347656,-0.511718 -0.281756,-0.425549 -0.554627,-0.85645 -0.822266,-1.291016 -0.138326,-0.223408 -0.27552,-0.447933 -0.410156,-0.673828 -0.239113,-0.40114 -0.47226,-0.806704 -0.699218,-1.214844 l -0.01172,-0.02148 C 23.040762,86.318269 22.884973,86.029401 22.732384,85.74038 22.568526,85.428683 22.40867,85.114315 22.251915,84.798974 22.047087,84.388714 21.84915,83.975773 21.656212,83.55874 c -0.124003,-0.267213 -0.246315,-0.535181 -0.365234,-0.804688 -0.18392,-0.418254 -0.359357,-0.841044 -0.53125,-1.265625 -0.0834,-0.205606 -0.165639,-0.412344 -0.246094,-0.61914 -0.02623,-0.06773 -0.05209,-0.135207 -0.07813,-0.203125 -0.19011,-0.496555 -0.371468,-0.997409 -0.544922,-1.501954 -0.0567,-0.16422 -0.111152,-0.329273 -0.166016,-0.49414 -0.153947,-0.464746 -0.301824,-0.931252 -0.441406,-1.402344 -0.01346,-0.04588 -0.02576,-0.0908 -0.03906,-0.136719 -0.08623,-0.293669 -0.169564,-0.589459 -0.25,-0.884765 -0.01191,-0.04324 -0.02562,-0.08563 -0.03711,-0.128906 -0.09393,-0.349985 -0.1836,-0.70148 -0.269531,-1.054688 -0.09783,-0.399889 -0.190139,-0.800787 -0.277344,-1.203125 -0.0049,-0.02268 -0.0087,-0.04568 -0.01367,-0.06836 -0.05715,-0.267515 -0.113457,-0.535487 -0.166015,-0.804688 -0.101197,-0.513944 -0.193514,-1.029817 -0.277344,-1.546875 l -0.0059,-0.03906 c -0.02952,-0.184026 -0.05876,-0.367973 -0.08594,-0.552735 l -0.0039,-0.03125 c -0.09059,-0.612079 -0.168207,-1.226599 -0.234375,-1.841797 -0.01353,-0.12771 -0.02637,-0.254811 -0.03906,-0.382812 -0.0697,-0.704137 -0.122561,-1.410605 -0.160156,-2.117188 -0.0025,-0.04664 -0.0073,-0.09196 -0.0098,-0.138671 -0.03929,-0.778338 -0.05834,-1.558564 -0.05859,-2.337891 6.4e-5,-0.797004 0.01965,-1.592719 0.06055,-2.388672 0.03808,-0.727181 0.09394,-1.453135 0.166015,-2.177734 0.01228,-0.128051 0.02554,-0.257071 0.03906,-0.384766 0.06455,-0.602419 0.140543,-1.20329 0.228515,-1.802734 0.03526,-0.243742 0.07222,-0.486025 0.111329,-0.728516 0.08092,-0.497881 0.17055,-0.995241 0.267578,-1.490234 0.05666,-0.290646 0.115704,-0.578485 0.177734,-0.867188 0.08408,-0.38671 0.17368,-0.773757 0.267578,-1.158203 0.105857,-0.437692 0.21782,-0.871901 0.335938,-1.304688 0.06183,-0.227867 0.126118,-0.454725 0.191406,-0.68164 l 0.02539,-0.08789 c 0.152924,-0.524591 0.313708,-1.043768 0.484376,-1.560547 l 0.0293,-0.08789 z M 19.955078,48.650391 c -13.3033853,-32.433594 -6.651693,-16.216797 0,0 z m 40.621094,79.255859 c -40.384115,-85.270833 -20.192057,-42.635417 0,0 z"
       transform="scale(0.26458333)" />
    <path
       id="path879"
       d="m 12.330264,21.536403 c -0.971759,-0.97176 -0.971752,-2.551594 -1.3e-5,-3.523332 l 2.273136,-2.273137 -1.079737,-1.079737 -2.273137,2.273136 a 4.0183594,4.0183596 45 0 0 4e-6,5.682818 4.0183594,4.0183596 45 0 0 5.682816,3e-6 l 2.273137,-2.273137 -1.079737,-1.079737 -2.273136,2.273137 c -0.971739,0.971738 -2.551569,0.971749 -3.523333,-1.4e-5 m 2.898236,-1.761674 4.546248,-4.546248 -1.136562,-1.136562 -4.546248,4.546248 1.136562,1.136562 m 1.704846,-8.524228 -2.27315,2.27315 1.079738,1.079737 2.273149,-2.27315 c 0.971739,-0.971738 2.551598,-0.97177 3.523358,-1.2e-5 0.971763,0.971765 0.971727,2.551619 -1.2e-5,3.523358 l -2.27315,2.27315 1.079737,1.079737 2.27315,-2.27315 a 4.0183594,4.0183596 45 0 0 -1.6e-5,-5.682804 4.0183594,4.0183596 45 0 0 -5.682804,-1.6e-5 z"
       style="fill:#ffffff;stroke-width:0.80367" />
  </g>
</svg>
